<mxfile host="app.diagrams.net" agent="Mozilla/5.0 (Windows NT 10.0; Win64; x64) AppleWebKit/537.36 (KHTML, like Gecko) Chrome/133.0.0.0 Safari/537.36" version="26.1.0">
  <diagram name="Página-1" id="gZLAHrKa2LAkKVzX3oqm">
    <mxGraphModel dx="1434" dy="772" grid="1" gridSize="10" guides="1" tooltips="1" connect="1" arrows="1" fold="1" page="1" pageScale="1" pageWidth="827" pageHeight="1169" math="0" shadow="0">
      <root>
        <mxCell id="0" />
        <mxCell id="1" parent="0" />
        <mxCell id="4SBieDoi5-MSazqWf2NV-91" value="&lt;p style=&quot;margin:0px;margin-top:4px;text-align:center;&quot;&gt;&lt;b&gt;Tarefas&lt;/b&gt;&lt;/p&gt;&lt;hr size=&quot;1&quot; style=&quot;border-style:solid;&quot;&gt;&lt;p style=&quot;margin:0px;margin-left:4px;&quot;&gt;+ prioridade&lt;/p&gt;&amp;nbsp;+ descrição&lt;div&gt;&lt;span style=&quot;background-color: transparent; color: light-dark(rgb(0, 0, 0), rgb(255, 255, 255));&quot;&gt;&amp;nbsp;+ data de criação&lt;/span&gt;&lt;/div&gt;&lt;div&gt;&amp;nbsp;+ data de vencimento&lt;/div&gt;&lt;div&gt;&amp;nbsp;+ status&lt;/div&gt;&lt;div&gt;&lt;hr size=&quot;1&quot; style=&quot;border-style:solid;&quot;&gt;&lt;p style=&quot;margin:0px;margin-left:4px;&quot;&gt;&amp;nbsp; &amp;nbsp; &amp;nbsp; &amp;nbsp;Excluir tarefas()&lt;/p&gt;&lt;/div&gt;" style="verticalAlign=top;align=left;overflow=fill;html=1;whiteSpace=wrap;" vertex="1" parent="1">
          <mxGeometry x="460" y="370" width="160" height="140" as="geometry" />
        </mxCell>
        <mxCell id="4SBieDoi5-MSazqWf2NV-92" value="Usuário" style="swimlane;fontStyle=1;align=center;verticalAlign=top;childLayout=stackLayout;horizontal=1;startSize=26;horizontalStack=0;resizeParent=1;resizeParentMax=0;resizeLast=0;collapsible=1;marginBottom=0;whiteSpace=wrap;html=1;" vertex="1" parent="1">
          <mxGeometry x="180" y="370" width="160" height="144" as="geometry" />
        </mxCell>
        <mxCell id="4SBieDoi5-MSazqWf2NV-93" value="+CPF: String&lt;div&gt;+nome:&amp;nbsp;&lt;span style=&quot;background-color: transparent; color: light-dark(rgb(0, 0, 0), rgb(255, 255, 255));&quot;&gt;String&lt;/span&gt;&lt;span style=&quot;background-color: transparent; color: light-dark(rgb(0, 0, 0), rgb(255, 255, 255));&quot;&gt;&amp;nbsp;&lt;/span&gt;&lt;/div&gt;&lt;div&gt;+senha:&amp;nbsp;&lt;span style=&quot;background-color: transparent; color: light-dark(rgb(0, 0, 0), rgb(255, 255, 255));&quot;&gt;String&lt;/span&gt;&lt;/div&gt;&lt;div&gt;+email:&amp;nbsp;&lt;span style=&quot;background-color: transparent; color: light-dark(rgb(0, 0, 0), rgb(255, 255, 255));&quot;&gt;String&lt;/span&gt;&lt;/div&gt;&lt;div&gt;+idade: Int&lt;/div&gt;" style="text;strokeColor=none;fillColor=none;align=left;verticalAlign=top;spacingLeft=4;spacingRight=4;overflow=hidden;rotatable=0;points=[[0,0.5],[1,0.5]];portConstraint=eastwest;whiteSpace=wrap;html=1;" vertex="1" parent="4SBieDoi5-MSazqWf2NV-92">
          <mxGeometry y="26" width="160" height="84" as="geometry" />
        </mxCell>
        <mxCell id="4SBieDoi5-MSazqWf2NV-94" value="" style="line;strokeWidth=1;fillColor=none;align=left;verticalAlign=middle;spacingTop=-1;spacingLeft=3;spacingRight=3;rotatable=0;labelPosition=right;points=[];portConstraint=eastwest;strokeColor=inherit;" vertex="1" parent="4SBieDoi5-MSazqWf2NV-92">
          <mxGeometry y="110" width="160" height="8" as="geometry" />
        </mxCell>
        <mxCell id="4SBieDoi5-MSazqWf2NV-95" value="&amp;nbsp; &amp;nbsp; &amp;nbsp; &amp;nbsp; &amp;nbsp; Criar tarefas()" style="text;strokeColor=none;fillColor=none;align=left;verticalAlign=top;spacingLeft=4;spacingRight=4;overflow=hidden;rotatable=0;points=[[0,0.5],[1,0.5]];portConstraint=eastwest;whiteSpace=wrap;html=1;" vertex="1" parent="4SBieDoi5-MSazqWf2NV-92">
          <mxGeometry y="118" width="160" height="26" as="geometry" />
        </mxCell>
        <mxCell id="4SBieDoi5-MSazqWf2NV-106" value="" style="edgeStyle=orthogonalEdgeStyle;rounded=0;orthogonalLoop=1;jettySize=auto;html=1;" edge="1" parent="1" source="4SBieDoi5-MSazqWf2NV-101" target="4SBieDoi5-MSazqWf2NV-105">
          <mxGeometry relative="1" as="geometry" />
        </mxCell>
        <mxCell id="4SBieDoi5-MSazqWf2NV-107" style="edgeStyle=orthogonalEdgeStyle;rounded=0;orthogonalLoop=1;jettySize=auto;html=1;exitX=0;exitY=0.3333333333333333;exitDx=0;exitDy=0;exitPerimeter=0;entryX=1;entryY=0;entryDx=0;entryDy=0;" edge="1" parent="1" source="4SBieDoi5-MSazqWf2NV-101" target="4SBieDoi5-MSazqWf2NV-102">
          <mxGeometry relative="1" as="geometry" />
        </mxCell>
        <mxCell id="4SBieDoi5-MSazqWf2NV-111" style="edgeStyle=orthogonalEdgeStyle;rounded=0;orthogonalLoop=1;jettySize=auto;html=1;exitX=1;exitY=0.3333333333333333;exitDx=0;exitDy=0;exitPerimeter=0;entryX=0;entryY=0;entryDx=0;entryDy=0;" edge="1" parent="1" source="4SBieDoi5-MSazqWf2NV-101" target="4SBieDoi5-MSazqWf2NV-109">
          <mxGeometry relative="1" as="geometry" />
        </mxCell>
        <mxCell id="4SBieDoi5-MSazqWf2NV-101" value="Usuário" style="shape=umlActor;verticalLabelPosition=bottom;verticalAlign=top;html=1;" vertex="1" parent="1">
          <mxGeometry x="380" y="230" width="50" height="100" as="geometry" />
        </mxCell>
        <mxCell id="4SBieDoi5-MSazqWf2NV-102" value="&lt;div&gt;&lt;br&gt;&lt;/div&gt;&lt;div&gt;Criar&lt;/div&gt;&lt;div&gt;tarefas&lt;/div&gt;" style="ellipse;whiteSpace=wrap;html=1;verticalAlign=top;" vertex="1" parent="1">
          <mxGeometry x="240" y="210" width="80" height="80" as="geometry" />
        </mxCell>
        <mxCell id="4SBieDoi5-MSazqWf2NV-105" value="&lt;div&gt;&lt;br&gt;&lt;/div&gt;&lt;div&gt;Editar&amp;nbsp;&lt;/div&gt;&lt;div&gt;tarefas&lt;/div&gt;" style="ellipse;whiteSpace=wrap;html=1;verticalAlign=top;" vertex="1" parent="1">
          <mxGeometry x="365" y="80" width="80" height="80" as="geometry" />
        </mxCell>
        <mxCell id="4SBieDoi5-MSazqWf2NV-109" value="&lt;div&gt;&lt;br&gt;&lt;/div&gt;&lt;div&gt;Excluir&amp;nbsp;&lt;/div&gt;&lt;div&gt;tarefas&amp;nbsp;&lt;/div&gt;" style="ellipse;whiteSpace=wrap;html=1;verticalAlign=top;" vertex="1" parent="1">
          <mxGeometry x="510" y="210" width="80" height="80" as="geometry" />
        </mxCell>
      </root>
    </mxGraphModel>
  </diagram>
</mxfile>
